Coordinates
version=1
nRows=8
nColumns=36
inDegrees=yes

Units are S.I. units (second, meters, Newtons, ...)
If the header above contains a line with 'inDegrees', this indicates whether rotational values are in degrees (yes) or radians (no).

endheader
time	pelvis_tilt	pelvis_list	pelvis_rotation	pelvis_tx	pelvis_ty	pelvis_tz	hip_flexion_r	hip_adduction_r	hip_rotation_r	knee_angle_r	knee_angle_r_beta	ankle_angle_r	subtalar_angle_r	mtp_angle_r	hip_flexion_l	hip_adduction_l	hip_rotation_l	knee_angle_l	knee_angle_l_beta	ankle_angle_l	subtalar_angle_l	mtp_angle_l	lumbar_extension	lumbar_bending	lumbar_rotation	arm_flex_r	arm_add_r	arm_rot_r	elbow_flex_r	pro_sup_r	arm_flex_l	arm_add_l	arm_rot_l	elbow_flex_l	pro_sup_l
      1.00000000	      2.94505937	      0.51471088	     -0.23437192	      1.08645301	      0.95275961	     -0.26570746	     22.42733809	     -1.21200558	     -9.02310481	      8.55208977	      0.14926212	      1.84418009	    -17.82592118	     -7.21402734	    -13.93393517	      3.07714970	     -7.63551531	      2.23495196	      0.03900727	     10.17250878	    -12.28405400	     -7.21402734	     -8.11803187	     -1.21737516	     -8.45429020	    -15.46392538	     -0.37538027	    -19.56877460	     22.86751152	    111.34292025	     17.15946300	     -9.06712552	      1.67181161	     43.86871269	    108.29062924
      1.01000000	      2.62519785	      0.88401949	     -0.03965909	      1.09862966	      0.95016548	     -0.26535090	     22.69002220	     -1.53927926	     -9.38634292	      6.52761078	      0.11392830	      2.13856178	    -17.41763008	     -7.21560143	    -14.27700666	      3.38613900	     -7.64948358	      2.44761000	      0.04271885	     10.36318895	    -12.33908429	     -7.21560143	     -7.75199237	     -1.66443655	     -8.62163182	    -16.05190571	     -0.16565412	    -19.71996411	     22.77771807	    111.24605044	     17.59817503	     -9.05765989	      1.75661596	     44.44382146	    108.28513882
      1.02000000	      2.66615409	      0.85068055	      0.20088172	      1.11092066	      0.94821230	     -0.26490540	     22.07143618	     -1.37871859	     -8.91256622	      4.00744524	      0.06994311	      2.38782409	    -16.04889036	     -7.22019202	    -15.02251676	      3.20991822	     -7.34054684	      2.74969735	      0.04799127	     10.80056514	    -12.41843793	     -7.22019202	     -7.89808000	     -1.56557483	     -9.08636861	    -16.38084961	     -0.05697583	    -20.36450785	     22.95788105	    111.23279340	     17.74906704	     -9.32088344	      2.10709225	     45.46389874	    108.43042039
      1.03000000	      2.47676859	      1.01988102	      0.39155971	      1.12314778	      0.94585500	     -0.26438075	     22.11392428	     -1.50613118	     -8.98225581	      2.58751593	      0.04516067	      2.66545448	    -15.44266902	     -7.22243051	    -15.42407808	      3.24173713	     -7.21636118	      3.18284763	      0.05555117	     10.92044154	    -12.40949628	     -7.22243051	     -7.73613139	     -1.72991603	     -9.21570390	    -16.77852067	      0.10490253	    -20.66925139	     22.93351956	    111.22252944	     18.07307766	     -9.30078900	      2.22140402	     46.08202664	    108.50219270
      1.04000000	      2.49420276	      1.07556794	      0.55237384	      1.13567014	      0.94383643	     -0.26374212	     22.01752701	     -1.56081829	     -9.57231151	      1.79529302	      0.03133377	      3.90725489	    -13.45089857	     -7.23541949	    -16.05854254	      3.12452019	     -7.40748474	      3.64896349	      0.06368643	     11.38904745	    -11.94818462	     -7.23541949	     -7.83253244	     -1.72655360	     -9.44609937	    -17.11659296	      0.38128840	    -22.20005911	     23.33551037	    111.24398402	     18.12447982	     -9.40106548	      2.36418540	     47.11389027	    108.62860733
      1.05000000	      2.38292275	      1.15412181	      0.67371679	      1.14814253	      0.94167516	     -0.26303022	     22.06690712	     -1.60636429	     -9.57633907	      1.35860589	      0.02371215	      4.12768098	    -13.18845187	     -7.23716191	    -16.47178271	      3.03525847	     -7.41815911	      4.25442008	      0.07425364	     11.47210927	    -12.04658879	     -7.23716191	     -7.73684682	     -1.76913847	     -9.44036684	    -17.41862822	      0.44744541	    -22.32311509	     23.22292152	    111.26023795	     18.41148716	     -9.24517634	      2.39626106	     47.40653747	    108.66023512
      1.06000000	      2.40236291	      1.09744906	      0.78928356	      1.16098524	      0.93978441	     -0.26219435	     21.96125753	     -1.54034370	     -9.94181632	      1.36881431	      0.02389032	      5.17725924	    -11.75253496	     -7.25057746	    -16.94581012	      2.74122221	     -7.83999359	      5.07447541	      0.08856630	     11.95636960	    -11.50683898	     -7.25057746	     -7.77456386	     -1.63075198	     -9.48068213	    -17.64706904	      0.57098050	    -23.22638964	     23.35709986	    111.40280248	     18.46636955	     -9.13266301	      2.43417930	     47.92373511	    108.74633673
      1.07000000	      2.40230338	      1.03908704	      0.88916530	      1.17398058	      0.93799701	     -0.26130188	     21.79266481	     -1.44614870	     -9.75830066	      1.56361742	      0.02729027	      5.26310579	    -11.76823377	     -7.25146815	    -17.46132005	      2.47253314	     -7.74169570	      5.76756007	      0.10066291	     11.85775288	    -11.54365775	     -7.25146815	     -7.74920345	     -1.49181975	     -9.44873215	    -17.83386779	      0.54190950	    -23.28062603	     23.26179834	    111.40896325	     18.54311577	     -8.91829958	      2.44912064	     48.09149728	    108.76448529
